# xmcd CD database file
#
# Track frame offsets:
#	150
#	19495
#	42429
#	64338
#	82844
#	98017
#	106082
#	138036
#	149760
#	191550
#	211524
#
# Disc length: 3002 seconds
#
# Revision: 0
# Processed by: cddbd v1.5.2PL0 Copyright (c) Steve Scherf et al.
# Submitted via: CDex 1.70beta2
#
DISCID=920bb80b
DTITLE=Joe Bonamassa - You and Me
DYEAR=2006
DGENRE=Blues
TTITLE0=High Water Everywhere
TTITLE1=Bridge To Better Days
TTITLE2=Asking Around For You
TTITLE3=So Many Roads
TTITLE4=I Don´t Believe
TTITLE5=Tamp Em Up Solid
TTITLE6=Django
TTITLE7=Tea For One
TTITLE8=Palm Trees Helicopters And Gasoline
TTITLE9=Your Funeral And My Trial
TTITLE10=Torn Down
EXTD=YEAR: 2006
EXTT0=
EXTT1=
EXTT2=
EXTT3=
EXTT4=
EXTT5=
EXTT6=
EXTT7=
EXTT8=
EXTT9=
EXTT10=
PLAYORDER=
